<svg width="196" height="43" viewBox="0 0 196 43" fill="none" xmlns="http://www.w3.org/2000/svg">
<path d="M193.59 17.4734L193.174 17.5566C192.453 16.6691 191.801 15.8786 191.218 15.1852C190.664 14.4919 190.137 13.9233 189.637 13.4795C189.138 13.008 188.653 12.6613 188.181 12.4394C187.71 12.1898 187.197 12.065 186.642 12.065C185.921 12.065 185.269 12.273 184.687 12.689C184.104 13.1051 183.813 13.7153 183.813 14.5196C183.813 15.102 183.965 15.6013 184.271 16.0173C184.576 16.4056 184.978 16.7523 185.477 17.0574C186.004 17.3625 186.586 17.6537 187.224 17.9311C187.89 18.1807 188.57 18.458 189.263 18.7631C189.984 19.096 190.691 19.4704 191.385 19.8864C192.106 20.2747 192.744 20.7601 193.299 21.3426C193.853 21.925 194.297 22.6184 194.63 23.4227C194.963 24.1993 195.129 25.1285 195.129 26.2101C195.129 27.4582 194.879 28.5261 194.38 29.4136C193.909 30.2734 193.257 30.9807 192.425 31.5354C191.621 32.0624 190.664 32.4368 189.554 32.6587C188.473 32.9083 187.321 33.0331 186.101 33.0331C184.77 33.0331 183.48 32.9083 182.232 32.6587C180.984 32.4091 179.888 32.0762 178.945 31.6602L178.321 25.5861L178.737 25.5029C180.235 27.5553 181.677 29.2056 183.064 30.4537C184.451 31.6741 185.879 32.2842 187.349 32.2842C188.264 32.2842 188.902 32.0624 189.263 31.6186C189.651 31.1748 189.845 30.6478 189.845 30.0377C189.845 29.4552 189.693 28.956 189.388 28.5399C189.11 28.1239 188.736 27.7495 188.264 27.4166C187.793 27.0838 187.238 26.7787 186.6 26.5014C185.99 26.224 185.352 25.9328 184.687 25.6277C183.938 25.2949 183.203 24.9204 182.482 24.5044C181.76 24.0884 181.109 23.5891 180.526 23.0067C179.972 22.4242 179.514 21.7308 179.153 20.9265C178.793 20.1222 178.613 19.1653 178.613 18.0559C178.613 16.8633 178.848 15.837 179.32 14.9772C179.791 14.1174 180.443 13.424 181.275 12.8971C182.107 12.3424 183.078 11.9402 184.187 11.6906C185.325 11.4409 186.531 11.3161 187.807 11.3161C188.75 11.3161 189.665 11.3716 190.553 11.4825C191.44 11.5935 192.258 11.746 193.007 11.9402L193.59 17.4734Z" fill="currentColor"/>
<path d="M167.378 28.8728H167.128C166.962 29.1779 166.685 29.5662 166.296 30.0377C165.936 30.5092 165.464 30.9668 164.882 31.4106C164.299 31.8543 163.62 32.2288 162.843 32.5339C162.094 32.8667 161.248 33.0331 160.305 33.0331C158.475 33.0331 157.047 32.4507 156.02 31.2858C155.022 30.1209 154.523 28.5677 154.523 26.6262V16.9326C154.523 16.2669 154.481 15.6984 154.398 15.2269C154.342 14.7553 154.245 14.3393 154.107 13.9788C153.996 13.6182 153.843 13.2992 153.649 13.0219C153.483 12.7168 153.288 12.4117 153.066 12.1066V11.9402H162.51V27.0838C162.51 27.3612 162.538 27.6385 162.594 27.9159C162.677 28.1932 162.788 28.4567 162.926 28.7064C163.093 28.9282 163.315 29.1224 163.592 29.2888C163.87 29.4275 164.216 29.4968 164.632 29.4968C165.187 29.4968 165.672 29.3304 166.088 28.9976C166.504 28.637 166.865 28.2071 167.17 27.7079V16.8494C167.17 16.1837 167.128 15.6152 167.045 15.1436C166.99 14.6721 166.893 14.2561 166.754 13.8955C166.643 13.535 166.491 13.216 166.296 12.9387C166.13 12.6336 165.936 12.3285 165.714 12.0234V11.9402H175.158V22.9235C175.158 24.1161 175.199 25.1146 175.283 25.9189C175.366 26.7233 175.491 27.4166 175.657 27.9991C175.824 28.5815 176.045 29.0808 176.323 29.4968C176.6 29.9129 176.933 30.3428 177.321 30.7865V30.8697L167.378 33.0331V28.8728Z" fill="currentColor"/>
<path d="M141.584 33.0331C140.031 33.0331 138.561 32.7419 137.174 32.1594C135.787 31.577 134.567 30.8004 133.513 29.8297C132.487 28.8312 131.668 27.6801 131.058 26.3766C130.448 25.0453 130.143 23.6446 130.143 22.1746C130.143 20.7046 130.448 19.3179 131.058 18.0143C131.668 16.683 132.487 15.5181 133.513 14.5196C134.567 13.5211 135.787 12.7307 137.174 12.1482C138.561 11.5658 140.031 11.2745 141.584 11.2745C143.165 11.2745 144.649 11.5658 146.036 12.1482C147.422 12.7307 148.629 13.5211 149.655 14.5196C150.709 15.5181 151.541 16.683 152.151 18.0143C152.761 19.3179 153.066 20.7046 153.066 22.1746C153.066 23.6446 152.761 25.0453 152.151 26.3766C151.541 27.6801 150.709 28.8312 149.655 29.8297C148.629 30.8004 147.422 31.577 146.036 32.1594C144.649 32.7419 143.165 33.0331 141.584 33.0331ZM141.626 32.2843C142.79 32.2843 143.636 31.3967 144.163 29.6216C144.69 27.8466 144.954 25.3642 144.954 22.1746C144.954 18.985 144.676 16.5027 144.122 14.7276C143.595 12.9248 142.749 12.0234 141.584 12.0234C140.419 12.0234 139.573 12.9248 139.046 14.7276C138.519 16.5027 138.256 18.985 138.256 22.1746C138.256 25.3642 138.519 27.8466 139.046 29.6216C139.601 31.3967 140.461 32.2843 141.626 32.2843Z" fill="currentColor"/>
<path d="M128.06 26.2518C127.477 28.3319 126.382 29.9822 124.773 31.2026C123.164 32.4229 121.112 33.0331 118.616 33.0331C116.952 33.0331 115.468 32.7696 114.164 32.2426C112.888 31.6879 111.793 30.9391 110.878 29.9961C109.99 29.0253 109.311 27.902 108.839 26.6262C108.368 25.3504 108.132 23.9774 108.132 22.5075C108.132 20.8988 108.381 19.4149 108.881 18.0559C109.38 16.6691 110.087 15.4765 111.002 14.478C111.945 13.4795 113.069 12.7029 114.372 12.1482C115.676 11.5658 117.132 11.2745 118.741 11.2745C120.322 11.2745 121.694 11.5519 122.859 12.1066C124.052 12.6336 125.037 13.3408 125.813 14.2284C126.59 15.0882 127.172 16.0728 127.561 17.1822C127.949 18.2639 128.143 19.3733 128.143 20.5105L116.286 20.3857C116.397 21.8557 116.633 23.0622 116.993 24.0052C117.382 24.9482 117.867 25.697 118.449 26.2518C119.032 26.8065 119.698 27.1948 120.446 27.4167C121.195 27.6108 121.972 27.7079 122.776 27.7079C123.525 27.7079 124.191 27.6385 124.773 27.4999C125.383 27.3612 125.896 27.2086 126.312 27.0422C126.728 26.8758 127.061 26.7094 127.311 26.543C127.561 26.3488 127.741 26.2102 127.852 26.1269L128.06 26.2518ZM116.244 19.512L120.53 19.4704V17.307C120.53 15.3933 120.322 14.0342 119.906 13.2299C119.517 12.4256 119.032 12.0234 118.449 12.0234C118.089 12.0234 117.77 12.2175 117.493 12.6058C117.215 12.9664 116.979 13.4656 116.785 14.1036C116.619 14.7415 116.48 15.4765 116.369 16.3085C116.286 17.1406 116.244 18.0004 116.244 18.888V19.512Z" fill="currentColor"/>
<path d="M101.059 33.0331C99.1454 33.0331 97.62 32.5477 96.4828 31.577C95.3734 30.6062 94.8187 29.0392 94.8187 26.8758V12.9387H92.4473V12.5226L102.307 7.03098H102.807V11.9402H107.508V12.9387H102.807V26.6678C102.807 27.3612 102.89 27.9297 103.056 28.3735C103.25 28.8173 103.486 29.164 103.763 29.4136C104.041 29.6632 104.36 29.8435 104.72 29.9544C105.081 30.0377 105.441 30.0793 105.802 30.0793C106.19 30.0793 106.509 30.0515 106.759 29.996C107.036 29.9128 107.272 29.8296 107.466 29.7464C107.688 29.6355 107.868 29.5107 108.007 29.372L108.132 29.4968C107.91 29.9128 107.591 30.3289 107.175 30.7449C106.787 31.1609 106.301 31.5354 105.719 31.8682C105.136 32.201 104.443 32.4784 103.639 32.7003C102.862 32.9222 102.002 33.0331 101.059 33.0331Z" fill="currentColor"/>
<path d="M68.8166 32.409V32.3258C68.9552 31.8543 69.0801 31.3967 69.191 30.9529C69.3297 30.5092 69.4406 30.0238 69.5238 29.4968C69.6348 28.9698 69.718 28.3874 69.7734 27.7495C69.8289 27.1115 69.8567 26.3488 69.8567 25.4613V9.8184C69.8567 8.98633 69.815 8.25134 69.7318 7.61342C69.6764 6.94777 69.5654 6.33758 69.399 5.78287C69.2326 5.20042 69.0107 4.65958 68.7334 4.16034C68.456 3.63336 68.0954 3.10639 67.6517 2.57941V2.4962L77.8445 0V15.3517C78.0387 14.9634 78.316 14.5335 78.6766 14.0619C79.0649 13.5904 79.5502 13.1467 80.1327 12.7306C80.7429 12.3146 81.4501 11.9679 82.2545 11.6906C83.0588 11.4132 83.9741 11.2745 85.0003 11.2745C85.8878 11.2745 86.7199 11.4132 87.4965 11.6906C88.2731 11.9402 88.9526 12.3146 89.5351 12.8138C90.1175 13.2854 90.5751 13.8817 90.908 14.6028C91.2408 15.2962 91.4072 16.0728 91.4072 16.9326V25.4613C91.4072 26.2933 91.4349 27.0422 91.4904 27.7079C91.5459 28.3458 91.6152 28.9282 91.6984 29.4552C91.7816 29.9822 91.8787 30.4814 91.9897 30.9529C92.1283 31.3967 92.2809 31.8543 92.4473 32.3258V32.409H82.3793V32.3258C82.5457 31.8543 82.6844 31.3967 82.7953 30.9529C82.934 30.4814 83.0449 29.996 83.1281 29.4968C83.2391 28.9698 83.3084 28.3874 83.3362 27.7495C83.3916 27.1115 83.4194 26.3766 83.4194 25.5445V17.0158C83.4194 16.2947 83.2252 15.7261 82.8369 15.3101C82.4486 14.894 81.8662 14.686 81.0896 14.686C80.3684 14.686 79.7167 14.894 79.1342 15.3101C78.5795 15.6983 78.1496 16.156 77.8445 16.683V25.5029C77.8445 26.335 77.8722 27.0699 77.9277 27.7079C77.9832 28.3458 78.0525 28.9282 78.1357 29.4552C78.2467 29.9822 78.3576 30.4814 78.4686 30.9529C78.6072 31.3967 78.7459 31.8543 78.8846 32.3258V32.409H68.8166Z" fill="currentColor"/>
<path d="M54.3371 25.1285C55.0582 25.1285 55.5713 24.5876 55.8764 23.5059C56.1815 22.3965 56.334 20.7601 56.334 18.5967C56.334 16.4334 56.1815 14.797 55.8764 13.6875C55.5713 12.5781 55.0443 12.0234 54.2955 12.0234C53.5466 12.0234 53.0335 12.5781 52.7561 13.6875C52.4788 14.797 52.3401 16.4334 52.3401 18.5967C52.3401 20.7601 52.4927 22.3965 52.7977 23.5059C53.1028 24.5876 53.6159 25.1285 54.3371 25.1285ZM66.6517 34.8637C66.6517 36.0286 66.3466 37.0548 65.7364 37.9423C65.154 38.8298 64.2941 39.5787 63.157 40.1889C62.0476 40.8268 60.6885 41.2983 59.0799 41.6034C57.4989 41.9362 55.6961 42.1026 53.6714 42.1026C50.4541 42.1026 47.9717 41.756 46.2244 41.0626C44.5048 40.3692 43.645 39.4262 43.645 38.2335C43.645 37.4015 44.0194 36.7081 44.7683 36.1534C45.5449 35.5986 46.4602 35.1826 47.5141 34.9053C46.2937 34.4615 45.4201 33.8513 44.8931 33.0747C44.3661 32.2981 44.1026 31.3967 44.1026 30.3705C44.1026 29.5107 44.2552 28.7618 44.5603 28.1239C44.8654 27.4583 45.2398 26.8897 45.6836 26.4182C46.1551 25.9467 46.6543 25.5722 47.1813 25.2949C47.7083 24.9898 48.2075 24.754 48.679 24.5876C47.4309 23.9497 46.4602 23.1038 45.7668 22.0498C45.1011 20.9959 44.7683 19.8448 44.7683 18.5967C44.7683 17.5705 44.9902 16.6136 45.4339 15.7261C45.9054 14.8108 46.5572 14.0342 47.3893 13.3963C48.2214 12.7307 49.2199 12.2175 50.3848 11.857C51.5774 11.4687 52.881 11.2745 54.2955 11.2745C55.5436 11.2745 56.6807 11.4132 57.7069 11.6906C58.7609 11.9679 59.69 12.3562 60.4944 12.8555L66.5269 9.06955L66.6101 9.15276V14.3532H66.4437L61.368 13.4795C62.1724 14.1174 62.7964 14.8802 63.2402 15.7677C63.684 16.6275 63.9059 17.5705 63.9059 18.5967C63.9059 19.6507 63.6701 20.6214 63.1986 21.509C62.7548 22.3965 62.103 23.1592 61.2432 23.7972C60.4112 24.4351 59.3988 24.9482 58.2062 25.3365C57.0413 25.697 55.7516 25.8773 54.3371 25.8773C53.3663 25.8773 52.4649 25.7941 51.6329 25.6277C50.8008 25.4336 50.0242 25.1839 49.3031 24.8788C49.2199 25.0175 49.1366 25.1978 49.0534 25.4197C48.998 25.6138 48.9702 25.8496 48.9702 26.1269C48.9702 26.432 49.0118 26.7094 49.095 26.959C49.206 27.2086 49.3863 27.4166 49.6359 27.5831C49.9132 27.7495 50.2877 27.8882 50.7592 27.9991C51.2307 28.11 51.827 28.1794 52.5481 28.2071L56.0012 28.4151C63.1015 28.8312 66.6517 30.9807 66.6517 34.8637ZM54.9611 41.1874C57.0968 41.1874 58.7332 40.9239 59.8703 40.3969C61.0075 39.8699 61.5761 39.1488 61.5761 38.2335C61.5761 37.873 61.4651 37.554 61.2432 37.2767C61.0491 36.9993 60.6885 36.7635 60.1615 36.5694C59.6346 36.3752 58.9412 36.2227 58.0814 36.1118C57.2216 36.0008 56.1538 35.9037 54.8779 35.8205L50.9672 35.5709C49.8855 35.4877 48.9841 35.349 48.263 35.1549C48.1243 35.3768 47.9995 35.6541 47.8885 35.9869C47.8053 36.3475 47.7637 36.7358 47.7637 37.1518C47.7637 37.9284 47.9579 38.5664 48.3462 39.0656C48.7345 39.5926 49.2615 40.0086 49.9271 40.3137C50.5928 40.6465 51.3555 40.8684 52.2153 40.9794C53.1028 41.118 54.0181 41.1874 54.9611 41.1874Z" fill="currentColor"/>
<path d="M41.0225 5.24203C41.0225 5.82447 40.9115 6.37919 40.6896 6.90616C40.4677 7.4054 40.1627 7.84917 39.7744 8.23747C39.3861 8.59803 38.9284 8.88926 38.4014 9.11114C37.8745 9.30529 37.3198 9.40237 36.7373 9.40237C36.1549 9.40237 35.614 9.30529 35.1148 9.11114C34.6433 8.88926 34.2134 8.59803 33.8251 8.23747C33.4645 7.84917 33.1733 7.4054 32.9514 6.90616C32.7573 6.37919 32.6602 5.82447 32.6602 5.24203C32.6602 4.10487 33.0485 3.13412 33.8251 2.32979C34.6017 1.52546 35.5724 1.12329 36.7373 1.12329C37.3198 1.12329 37.8745 1.23423 38.4014 1.45612C38.9284 1.678 39.3861 1.98309 39.7744 2.37139C40.1627 2.73195 40.4677 3.16186 40.6896 3.6611C40.9115 4.16034 41.0225 4.68731 41.0225 5.24203ZM32.577 32.3258C32.7157 31.8543 32.8405 31.3967 32.9514 30.9529C33.0901 30.4814 33.201 29.9822 33.2842 29.4552C33.3952 28.9282 33.4784 28.3458 33.5339 27.7079C33.5893 27.0422 33.6171 26.2933 33.6171 25.4613V20.8849C33.6171 20.0528 33.5755 19.3178 33.4923 18.6799C33.4368 18.0143 33.3258 17.4041 33.1594 16.8494C32.993 16.2669 32.7711 15.7261 32.4938 15.2268C32.2164 14.6999 31.8558 14.1729 31.4121 13.6459V13.5627L41.6049 11.0665V25.5029C41.6049 26.3349 41.6326 27.0699 41.6881 27.7079C41.7436 28.3458 41.8129 28.9282 41.8961 29.4552C42.0071 29.9822 42.118 30.4814 42.229 30.9529C42.3676 31.3967 42.5063 31.8543 42.645 32.3258V32.409H32.577V32.3258Z" fill="currentColor"/>
<path d="M12.0234 2.91226C11.8015 2.91226 11.5657 2.92613 11.3161 2.95387C11.0665 2.95387 10.803 2.95387 10.5257 2.95387V17.5567H12.273C13.3547 17.5567 14.2422 17.3209 14.9356 16.8494C15.6567 16.3779 16.2253 15.7677 16.6414 15.0189C17.0851 14.27 17.3902 13.4379 17.5566 12.5226C17.723 11.6074 17.8063 10.6921 17.8063 9.77682C17.8063 8.86155 17.7092 8.00175 17.515 7.19741C17.3486 6.36534 17.0435 5.63035 16.5998 4.99243C16.156 4.35451 15.5597 3.85527 14.8108 3.49471C14.0619 3.10641 13.1328 2.91226 12.0234 2.91226ZM0 32.3259C0.277356 31.5493 0.526976 30.8281 0.748861 30.1625C0.970746 29.4968 1.15103 28.8173 1.28971 28.1239C1.42838 27.4305 1.52546 26.6817 1.58093 25.8773C1.66414 25.0453 1.70574 24.0745 1.70574 22.9651V11.3994C1.70574 10.2899 1.66414 9.33305 1.58093 8.52872C1.52546 7.69665 1.42838 6.93392 1.28971 6.24053C1.15103 5.54714 0.970746 4.88149 0.748861 4.24357C0.526976 3.57792 0.277356 2.84292 0 2.03859V1.95538H14.3116C16.6968 1.95538 18.6938 2.13567 20.3025 2.49623C21.9111 2.85679 23.2008 3.3699 24.1716 4.03555C25.1423 4.70121 25.8218 5.50554 26.2101 6.44855C26.6262 7.39156 26.8342 8.43165 26.8342 9.56881C26.8342 11.1497 26.432 12.6336 25.6277 14.0204C24.8234 15.4071 23.4504 16.5027 21.509 17.307L26.0437 26.7926C26.3488 27.4583 26.64 28.0684 26.9174 28.6232C27.2225 29.1501 27.5276 29.6355 27.8327 30.0793C28.1655 30.5231 28.5399 30.9252 28.956 31.2858C29.372 31.6463 29.8574 31.993 30.4121 32.3259V32.4091H19.1376L12.8138 18.5967H10.5257V23.0067C10.5257 24.0607 10.5534 24.9898 10.6089 25.7941C10.6921 26.5985 10.803 27.3612 10.9417 28.0823C11.0804 28.7757 11.2468 29.4691 11.4409 30.1625C11.6628 30.8281 11.9124 31.5493 12.1898 32.3259V32.4091H0V32.3259Z" fill="currentColor"/>
</svg>
